<?xml version="1.0" encoding="UTF-8"?>
<svg xmlns="http://www.w3.org/2000/svg" xmlns:xlink="http://www.w3.org/1999/xlink" width="24pt" height="24pt" viewBox="0 0 24 24" version="1.1">
<g id="surface10413447">
<path style=" stroke:none;fill-rule:nonzero;fill:rgb(54.901961%,61.960784%,100%);fill-opacity:1;" d="M 20 6 C 20 6 17.707031 4.207031 15 4 L 14.757812 4.488281 C 17.203125 5.085938 18.328125 5.945312 19.5 7 C 17.476562 5.96875 15.480469 5 12 5 C 8.519531 5 6.523438 5.96875 4.5 7 C 5.671875 5.945312 7.007812 4.992188 9.242188 4.488281 L 9 4 C 6.160156 4.269531 4 6 4 6 C 4 6 1.441406 9.710938 1 17 C 3.582031 19.976562 7.5 20 7.5 20 L 8.320312 18.90625 C 6.929688 18.425781 5.359375 17.558594 4 16 C 5.617188 17.226562 8.0625 18.5 12 18.5 C 15.9375 18.5 18.382812 17.226562 20 16 C 18.640625 17.558594 17.070312 18.425781 15.679688 18.90625 L 16.5 20 C 16.5 20 20.417969 19.976562 23 17 C 22.558594 9.710938 20 6 20 6 Z M 8.75 15 C 7.785156 15 7 14.105469 7 13 C 7 11.894531 7.785156 11 8.75 11 C 9.714844 11 10.5 11.894531 10.5 13 C 10.5 14.105469 9.714844 15 8.75 15 Z M 15.25 15 C 14.285156 15 13.5 14.105469 13.5 13 C 13.5 11.894531 14.285156 11 15.25 11 C 16.214844 11 17 11.894531 17 13 C 17 14.105469 16.214844 15 15.25 15 Z M 15.25 15 "/>
</g>
</svg>
